<svg width="512" height="512" viewBox="0 0 128 128" fill="none" xmlns="http://www.w3.org/2000/svg"><defs><linearGradient id="bgGradient" x1="0%" y1="0%" x2="100%" y2="100%"><stop offset="0%" stop-color="#4F46E5"/><stop offset="50%" stop-color="#7C3AED"/><stop offset="100%" stop-color="#A855F7"/></linearGradient><linearGradient id="cardGradient" x1="0%" y1="0%" x2="100%" y2="100%"><stop offset="0%" stop-color="#FFFFFF"/><stop offset="100%" stop-color="#F8FAFC"/></linearGradient><filter id="glow"><feGaussianBlur stdDeviation="2" result="coloredBlur"/><feMerge><feMergeNode in="coloredBlur"/><feMergeNode in="SourceGraphic"/></feMerge></filter><filter id="shadow" x="-50%" y="-50%" width="200%" height="200%"><feGaussianBlur in="SourceAlpha" stdDeviation="3"/><feOffset dx="0" dy="2" result="offsetblur"/><feComponentTransfer><feFuncA type="linear" slope="0.3"/></feComponentTransfer><feMerge><feMergeNode/><feMergeNode in="SourceGraphic"/></feMerge></filter></defs><rect x="8" y="8" width="112" height="112" rx="24" fill="url(#bgGradient)"/><path d="M 28 24 L 32 24 L 32 32 L 24 32 L 24 28 Q 24 24 28 24 Z" fill="white" opacity="0.2"/><path d="M 100 24 L 96 24 L 96 32 L 104 32 L 104 28 Q 104 24 100 24 Z" fill="white" opacity="0.2"/><rect x="32" y="36" width="64" height="56" rx="8" fill="url(#cardGradient)" filter="url(#shadow)"/><rect x="38" y="42" width="28" height="4" rx="2" fill="#4F46E5" opacity="0.8"/><rect x="38" y="52" width="52" height="2.5" rx="1.25" fill="#94A3B8" opacity="0.6"/><rect x="38" y="58" width="48" height="2.5" rx="1.25" fill="#94A3B8" opacity="0.6"/><rect x="38" y="64" width="52" height="2.5" rx="1.25" fill="#94A3B8" opacity="0.6"/><rect x="38" y="70" width="44" height="2.5" rx="1.25" fill="#94A3B8" opacity="0.6"/><rect x="38" y="76" width="50" height="2.5" rx="1.25" fill="#94A3B8" opacity="0.6"/><rect x="38" y="82" width="46" height="2.5" rx="1.25" fill="#94A3B8" opacity="0.6"/><g filter="url(#glow)"><path d="M 76 38 L 70 50 L 74 50 L 69 62 L 79 48 L 75 48 L 81 36 Z" fill="#FCD34D" stroke="#F59E0B" stroke-width="1" stroke-linejoin="round"/></g><g opacity="0.9"><path d="M 98 50 L 99.5 53.5 L 103 55 L 99.5 56.5 L 98 60 L 96.5 56.5 L 93 55 L 96.5 53.5 Z" fill="white" filter="url(#glow)"/><path d="M 90 46 L 90.8 48 L 93 48.8 L 90.8 49.6 L 90 52 L 89.2 49.6 L 87 48.8 L 89.2 48 Z" fill="white" opacity="0.8"/><path d="M 102 44 L 102.5 45.5 L 104 46 L 102.5 46.5 L 102 48 L 101.5 46.5 L 100 46 L 101.5 45.5 Z" fill="white" opacity="0.7"/></g><g transform="translate(84, 82)"><circle cx="6" cy="6" r="4.5" fill="#7C3AED"/><path d="M 4 6 L 7 4 L 7 8 Z" fill="white"/></g></svg>